<svg width="13" height="13" viewBox="0 0 13 13" fill="none" xmlns="http://www.w3.org/2000/svg">
<path opacity="0.33" fill-rule="evenodd" clip-rule="evenodd" d="M10.1953 1.95929C11.1548 2.99588 11.7793 4.29851 12.0052 5.72988C12.0382 5.93137 11.9112 6.12313 11.726 6.15191C11.7224 6.15239 11.7189 6.15289 11.7154 6.15338C11.6993 6.15564 11.6843 6.15774 11.6677 6.15774C11.5027 6.15774 11.3579 6.03172 11.3301 5.85203C11.1294 4.57351 10.5709 3.40623 9.7128 2.48011C8.85484 1.55711 7.776 0.951491 6.59303 0.733673C6.40511 0.699446 6.28082 0.508862 6.31127 0.306981C6.34423 0.105894 6.51922 -0.0306389 6.7046 0.00592834C8.02984 0.24864 9.23559 0.92349 10.1953 1.95929ZM9.4972 8.04723C9.25103 7.77068 8.95383 7.62287 8.63901 7.62287C8.3268 7.62287 8.0272 7.76795 7.77086 8.04489L6.96862 8.908C6.93126 8.88618 6.89386 8.8656 6.85693 8.84528L6.85678 8.8452C6.8286 8.8297 6.80069 8.81435 6.77327 8.7987L6.75681 8.78975L6.75678 8.78974C6.67139 8.74333 6.59112 8.69971 6.52196 8.65401C5.77043 8.13708 5.08756 7.46456 4.43261 6.59563C4.11527 6.1631 3.90218 5.79864 3.74723 5.42874C3.92829 5.24978 4.09783 5.06463 4.26249 4.88482L4.2625 4.88481L4.33614 4.80446C4.37037 4.767 4.40459 4.72918 4.43882 4.69134C4.47568 4.65061 4.51255 4.60986 4.54946 4.56952C5.08252 3.99425 5.08252 3.24783 4.54946 2.67217L3.85629 1.92381L3.83053 1.89592C3.76006 1.81964 3.68822 1.74189 3.6202 1.66321C3.46799 1.4944 3.30801 1.3178 3.14298 1.15483C2.89694 0.889173 2.60247 0.751093 2.29257 0.751093C1.983 0.751093 1.6834 0.889173 1.42956 1.15483C1.42694 1.15522 1.42694 1.15522 1.42442 1.15911L0.561304 2.09962C0.236296 2.45046 0.0510158 2.87872 0.0105038 3.37386C-0.0506122 4.17551 0.16774 4.92076 0.335404 5.4089C0.746584 6.60729 1.3609 7.71895 2.27746 8.908C3.38926 10.3417 4.72707 11.4759 6.25542 12.2733C6.83919 12.5724 7.61853 12.9256 8.48932 12.9863L8.50453 12.9869H8.50453C8.55308 12.9891 8.6032 12.9913 8.64918 12.9913C9.23559 12.9913 9.72814 12.7634 10.1139 12.3114C10.1154 12.3081 10.1177 12.3057 10.1199 12.3036C10.1215 12.3019 10.123 12.3004 10.1241 12.2986C10.2434 12.1412 10.379 11.9997 10.5221 11.8506L10.5684 11.8023C10.6775 11.6891 10.7892 11.5712 10.8984 11.4483C11.1497 11.1655 11.2818 10.8373 11.2818 10.4989C11.2818 10.1593 11.1472 9.83257 10.8909 9.55835L9.4972 8.04723ZM10.1673 11.1956L10.1673 11.1956L10.0962 11.271C9.93128 11.4397 9.76361 11.6171 9.60626 11.8174C9.34991 12.1146 9.04779 12.2538 8.6517 12.2538C8.61371 12.2538 8.57297 12.2538 8.53509 12.2515C7.78104 12.1986 7.08044 11.8808 6.5548 11.6093C5.118 10.859 3.85629 9.79133 2.8079 8.43931C1.94226 7.31209 1.36365 6.27084 0.980164 5.15258C0.744184 4.46879 0.657664 3.9359 0.695884 3.4357C0.72118 3.11481 0.835396 2.84799 1.04608 2.62121L1.91194 1.68383C2.03633 1.56051 2.16828 1.49012 2.29772 1.49012C2.45759 1.49012 2.58702 1.59436 2.6684 1.68305C2.66998 1.68356 2.67166 1.68594 2.67332 1.68828L2.67584 1.6916C2.83078 1.84796 2.97796 2.00821 3.1329 2.18208C3.1674 2.22065 3.20241 2.259 3.23769 2.29764L3.23771 2.29767C3.28283 2.34709 3.32839 2.39701 3.37392 2.44851L4.06709 3.19727C4.33614 3.48705 4.33614 3.75698 4.06709 4.04676C4.04479 4.07089 4.02273 4.09502 4.00077 4.11904C3.95015 4.1744 3.90006 4.22919 3.84874 4.28208C3.63554 4.51858 3.4324 4.73678 3.21153 4.95109C3.20951 4.95342 3.20748 4.95526 3.20561 4.95695L3.20561 4.95695C3.20281 4.95948 3.20038 4.96168 3.19894 4.96471C2.98059 5.20237 3.02121 5.43069 3.06688 5.58978C3.06883 5.59429 3.07078 5.60046 3.07279 5.60681L3.07455 5.61233C3.25479 6.08453 3.50861 6.52911 3.89451 7.05771L3.89703 7.06044C4.59776 7.99395 5.33646 8.71935 6.15129 9.27596C6.24537 9.34132 6.34132 9.39366 6.43391 9.44418L6.46348 9.46033C6.5548 9.50817 6.64132 9.5564 6.7148 9.60542C6.72271 9.60934 6.73063 9.61491 6.73854 9.62049L6.74535 9.62525C6.83152 9.66997 6.91277 9.69254 6.99666 9.69254C7.20735 9.69254 7.3393 9.55057 7.38244 9.50311L8.25059 8.56493C8.33699 8.47275 8.47409 8.36074 8.63397 8.36074C8.79144 8.36074 8.92088 8.46692 8.99949 8.55988L8.9995 8.55989C9.00201 8.563 9.00201 8.563 9.00465 8.56493L10.4035 10.0761C10.6648 10.3549 10.6648 10.6432 10.406 10.9345C10.3288 11.0249 10.25 11.1082 10.1673 11.1956ZM6.4914 3.08806C7.15654 3.20981 7.76066 3.54976 8.24315 4.07058C8.7254 4.59257 9.0376 5.24563 9.15192 5.96482C9.17984 6.14568 9.32438 6.27093 9.48953 6.27093C9.50359 6.27093 9.5164 6.26908 9.52965 6.26716C9.53559 6.2663 9.54162 6.26543 9.54788 6.2647C9.73569 6.23243 9.86009 6.0395 9.82964 5.83724C9.69265 4.96752 9.3118 4.1756 8.73043 3.54743C8.14908 2.91886 7.41551 2.50889 6.61076 2.35992C6.42286 2.32764 6.24764 2.46223 6.2148 2.66214C6.18173 2.86286 6.3036 3.05656 6.4914 3.08806Z" fill="black"/>
</svg>
